PathFileType	4	(X/Y/Z)	c:/Users/goper/Files/vsCode/490R/osim_files/C03/C03_Slow_06.trc
DataRate	CameraRate	NumFrames	NumMarkers	Units                	OrigDataRate	OrigDataStartFrame	OrigNumFrames
250.00	250.00	7	36	mm	250.0	1591	2545
                Frame#	Time	LPSIS			LASIS			LTH1			LTH2			LTH3			LTH4			LLFE			LMFE			LSH1			LSH2			LSH3			LSH4			LLMAL			LMMAL			LCAL			LMTP5			LTOE			LMTP1			RPSIS			RASIS			RTH1			RTH2			RTH3			RTH4			RLFE			RMFE			RSH1			RSH2			RSH3			RSH4			RLMAL			RMMAL			RCAL			RMTP1			RTOE			RMTP5		
		X1	Y1	Z1	X2	Y2	Z2	X3	Y3	Z3	X4	Y4	Z4	X5	Y5	Z5	X6	Y6	Z6	X7	Y7	Z7	X8	Y8	Z8	X9	Y9	Z9	X10	Y10	Z10	X11	Y11	Z11	X12	Y12	Z12	X13	Y13	Z13	X14	Y14	Z14	X15	Y15	Z15	X16	Y16	Z16	X17	Y17	Z17	X18	Y18	Z18	X19	Y19	Z19	X20	Y20	Z20	X21	Y21	Z21	X22	Y22	Z22	X23	Y23	Z23	X24	Y24	Z24	X25	Y25	Z25	X26	Y26	Z26	X27	Y27	Z27	X28	Y28	Z28	X29	Y29	Z29	X30	Y30	Z30	X31	Y31	Z31	X32	Y32	Z32	X33	Y33	Z33	X34	Y34	Z34	X35	Y35	Z35	X36	Y36	Z36

1591	6.36000	-835.45807	1019.18683	261.73221	-1010.96185	962.15015	308.86401	-920.53809	605.13892	335.19189	-932.66992	544.11182	332.35788	-993.63623	612.59631	354.39493	-995.92297	551.24768	348.23141	-949.37781	470.35815	339.28793	-969.99805	449.93369	229.46695	-773.65106	415.51639	329.12280	-738.16101	384.84344	325.33163	-808.79059	368.27286	345.80966	-767.14038	344.77863	340.16943	-629.54504	264.06235	313.25455	-653.33856	245.10178	238.25307	-571.48944	307.41800	272.57895	-624.52820	119.56170	342.53287	-656.26611	95.69721	290.82745	-634.53479	108.85940	249.63255	-848.85522	1024.80823	148.83781	-1025.55481	991.67834	105.71725	-938.02881	600.81445	78.42089	-943.52936	540.45996	93.32130	-1001.23889	608.81628	66.07001	-1017.10822	549.43439	76.73904	-1020.52136	481.04715	97.18426	-987.24426	497.41229	205.34666	-957.48572	285.37073	91.43034	-967.76599	239.37120	97.37653	-1019.58954	289.77386	87.82582	-1019.05109	246.49960	92.98438	-1026.51733	94.62238	129.23337	-1038.86206	105.39153	209.47014	-964.10223	61.76346	172.30818	-1167.98523	59.56563	227.11955	-1192.24329	75.15714	188.59688	-1148.48096	38.92324	121.83404
1592	6.36400	-839.80835	1019.97162	260.78107	-1015.31128	963.01135	308.60681	-929.70197	605.74518	334.63354	-941.86615	544.93549	331.81580	-1002.07068	614.01923	354.08517	-1005.01471	552.65131	347.86111	-959.48120	471.59436	338.78305	-980.41302	451.22839	228.80206	-783.99738	416.88702	328.60971	-748.39026	386.29163	324.90723	-819.09460	369.60019	345.20938	-777.46033	346.15799	339.59082	-639.98602	264.83093	312.83328	-663.57092	246.11345	237.87518	-581.31311	307.84930	272.42191	-636.51788	120.42204	341.89722	-668.22821	96.91499	289.98300	-646.22839	109.88610	248.90237	-853.47827	1025.36609	147.96979	-1030.00537	991.99725	105.36739	-940.75122	601.29688	78.56020	-945.86859	540.96771	93.48026	-1003.79279	608.97876	66.03013	-1019.33478	549.58099	76.69760	-1022.50238	481.12146	97.30651	-989.62048	497.77783	205.44890	-958.41357	285.82169	91.73792	-968.47028	239.70497	97.70919	-1020.51685	289.87534	87.97719	-1019.82568	246.59607	93.18414	-1026.65186	94.75329	129.38795	-1039.11157	105.40366	209.62891	-964.19629	62.22318	172.21426	-1168.10083	59.25033	227.25172	-1192.43201	74.76479	188.75975	-1148.54871	38.87779	121.89632
1593	6.36800	-844.16608	1020.78204	259.86526	-1019.61456	964.06409	308.33871	-938.25677	606.37036	334.22562	-951.13251	545.69257	331.45636	-1010.40747	615.48456	353.74277	-1014.01532	554.11932	347.45059	-969.54193	472.90747	338.30338	-990.40326	452.77435	228.15691	-794.31580	418.15021	328.00464	-758.76288	387.49036	324.41681	-829.43713	370.91959	344.62881	-787.83417	347.46594	339.08548	-650.62018	265.50192	312.37152	-673.30872	246.62189	237.94810	-591.17822	308.02176	272.36041	-648.44501	120.98309	341.10065	-680.34106	98.02187	289.11749	-658.00696	110.77509	248.09468	-857.97162	1025.87329	147.07872	-1034.40784	992.30212	104.93112	-943.31396	601.86731	78.68081	-948.14001	541.52173	93.62080	-1006.33411	609.18207	65.98799	-1021.65076	549.68121	76.68311	-1024.49329	481.20230	97.30942	-991.79712	498.09915	205.63066	-959.43097	286.15878	92.07025	-969.28662	240.03061	98.00623	-1021.44122	289.93097	88.10555	-1020.47205	246.61916	93.36349	-1026.82617	94.90379	129.54469	-1039.34705	105.42616	209.73985	-964.20215	61.93810	172.34236	-1168.19946	58.90979	227.34860	-1192.66443	74.35979	188.87389	-1148.24341	38.31104	122.13645
1594	6.37200	-848.43292	1021.57819	258.91507	-1024.11768	965.07239	308.14380	-946.56140	607.20520	333.64102	-960.02661	546.70441	330.90506	-1018.70258	616.97455	353.41934	-1022.94922	555.69055	347.09671	-979.55817	474.27744	337.79150	-1000.29315	454.41159	227.33745	-804.42310	419.32132	327.41522	-769.00903	388.71335	324.05487	-839.75635	372.19803	344.06424	-798.14832	348.67337	338.68063	-661.16882	265.97873	311.94290	-684.81030	248.36815	236.88785	-601.11359	308.03864	272.35278	-660.76025	121.40535	340.47141	-693.33282	98.91070	287.67886	-669.78815	111.57718	247.35274	-862.44489	1026.40015	146.20253	-1038.80249	992.62927	104.53487	-945.99756	602.37360	78.86900	-950.46307	542.06995	93.82926	-1007.71326	609.09204	66.60428	-1023.93274	549.80286	76.65218	-1026.48218	481.32028	97.35865	-994.95758	498.37558	205.53006	-960.45526	286.61389	92.37674	-970.05579	240.36139	98.36745	-1022.43689	290.04822	88.22638	-1021.22406	246.76761	93.52950	-1027.23877	94.83318	129.94856	-1039.61304	105.47478	209.90582	-964.24530	62.09094	172.33382	-1168.22144	58.55100	227.46217	-1192.81958	73.94907	189.01295	-1148.35144	38.29264	122.20517
1595	6.37600	-852.72522	1022.42230	258.05148	-1028.74951	966.02509	307.88669	-954.80066	607.99036	333.89883	-968.95807	547.67023	330.44803	-1026.59827	618.75116	353.12753	-1031.84985	557.32947	346.67850	-989.58112	475.70209	337.26660	-1010.29327	456.02771	226.72826	-814.52539	420.42758	326.83481	-779.23273	389.78491	323.67471	-850.10754	373.40765	343.59729	-808.50421	349.79453	338.29904	-671.82220	266.31729	311.49445	-695.27454	249.07840	236.10722	-611.18372	307.87692	272.42969	-673.01642	121.61105	339.69080	-705.78064	99.79256	286.71729	-681.85645	112.25265	246.42772	-866.89673	1026.92896	145.31416	-1043.15479	992.91034	104.20348	-948.62714	602.92426	79.03863	-952.79321	542.63300	94.01179	-1010.47900	609.37219	66.27311	-1026.28577	550.00269	76.60891	-1028.51526	481.40417	97.37212	-994.69629	499.20480	205.63612	-961.28363	287.09595	92.79130	-969.83087	241.37524	98.24811	-1023.45483	290.19080	88.41357	-1022.08636	246.90669	93.69993	-1027.45691	94.97297	130.12096	-1039.87122	105.51281	210.05489	-964.31561	62.25745	172.35081	-1168.29614	58.23772	227.58206	-1192.98254	73.63015	189.12994	-1148.47559	38.29786	122.29475
1596	6.38000	-857.06750	1023.21796	257.17709	-1032.87976	966.90686	307.44299	-963.16760	608.78363	333.57678	-977.94409	548.68518	330.09921	-1035.12683	620.15094	352.70258	-1040.70398	558.94214	346.18912	-999.53149	477.12827	336.73776	-1018.77539	457.56973	226.69621	-824.74377	421.63300	326.49121	-789.50159	390.67102	323.33948	-860.61084	374.46933	343.06448	-818.96838	350.76401	337.83435	-682.69751	266.38794	311.12094	-706.39825	250.23680	233.74745	-621.28156	307.47974	272.48587	-685.77032	121.94063	338.91068	-718.44049	100.70132	285.52637	-693.99426	112.77282	245.61304	-871.30872	1027.42126	144.48418	-1047.55603	993.23621	103.81091	-951.15350	603.42072	79.23997	-955.13501	543.11151	94.25525	-1013.49530	609.67157	66.02525	-1028.62842	550.03760	76.64964	-1030.44983	481.47568	97.30961	-998.33911	499.36224	206.05899	-962.34143	287.54175	93.20738	-971.27899	241.34300	98.91872	-1024.34119	290.27966	88.61143	-1022.86444	247.01430	93.89475	-1027.68555	95.09243	130.30907	-1040.16296	105.54276	210.19923	-964.38879	62.36871	172.36761	-1168.41541	57.96400	227.64073	-1193.17126	73.27635	189.21310	-1148.60193	38.28194	122.35178
1597	6.38400	-861.39520	1024.06714	256.41394	-1037.16602	967.83105	307.14505	-971.66132	609.91302	333.26895	-986.81616	549.71619	329.73859	-1043.37268	621.82556	352.35693	-1049.61633	560.69373	345.80658	-1009.47168	478.71701	336.23727	0.00000	0.00000	0.00000	-834.91602	422.56860	326.14108	-799.84540	391.47064	323.04922	-871.04071	375.52002	342.57083	-829.50427	351.63693	337.44019	-693.60242	266.37479	310.84229	-716.85956	249.75061	234.95667	-631.48315	306.88889	272.61905	-698.59448	121.86764	338.14154	-731.06531	100.98924	284.82230	-706.30975	113.14556	244.86061	-875.70990	1027.94299	143.71390	-1051.89014	993.51062	103.47478	-953.72504	603.99274	79.44759	-957.51978	543.65271	94.49227	-1016.06787	609.83521	66.02168	-1030.95935	550.22052	76.61826	-1032.35986	481.59793	97.38042	-1001.74597	499.53232	206.31200	-963.29498	288.03589	93.54378	-972.41638	241.60493	99.39596	-1025.41174	290.43738	88.79958	-1023.54944	247.16347	94.00352	-1027.91455	95.26466	130.37262	-1040.20422	105.22918	210.74719	-964.46942	62.52538	172.39464	-1168.60083	57.74121	227.68854	-1193.40198	72.93963	189.29959	-1148.89612	38.66350	122.10313
